<?xml version="1.0" encoding="UTF-8"?>
<svg version="1.1" xmlns="http://www.w3.org/2000/svg" width="1024" height="1024">
<path d="M0 0 C337.92 0 675.84 0 1024 0 C1024 337.92 1024 675.84 1024 1024 C686.08 1024 348.16 1024 0 1024 C0 686.08 0 348.16 0 0 Z " fill="#FDFDFD" transform="translate(0,0)"/>
<path d="M0 0 C1.22753746 -0.00430527 1.22753746 -0.00430527 2.47987366 -0.00869751 C4.20363053 -0.01073093 5.92741085 -0.00525174 7.65112305 0.00732422 C10.27380595 0.02336807 12.89494316 0.00746227 15.51757812 -0.01171875 C17.19922212 -0.00973579 18.88086516 -0.00589101 20.5625 0 C21.72687843 -0.00910904 21.72687843 -0.00910904 22.91477966 -0.0184021 C29.49042092 0.06552685 34.14531858 1.48336127 39.22265625 5.8984375 C42.91595949 10.24350014 42.49380724 14.45369793 42.48809814 19.88105774 C42.49106927 20.75735138 42.49404039 21.63364501 42.49710155 22.536493 C42.50580043 25.48438056 42.5072978 28.43222756 42.50878906 31.38012695 C42.51341638 33.4890349 42.51844092 35.59794201 42.52383423 37.70684814 C42.53696821 43.44449336 42.54340509 49.18212688 42.54784489 54.91978478 C42.55077389 58.50271465 42.55487836 62.08564131 42.55934906 65.66856956 C42.57302637 76.87375191 42.58269199 88.07892693 42.58655095 99.28411704 C42.59103299 112.22817906 42.60858673 125.17213554 42.63755155 138.11616546 C42.65915177 148.11538991 42.66925434 158.11458464 42.67059207 168.11383218 C42.67164125 174.08880586 42.67757315 180.06368037 42.69541168 186.03862953 C42.7118637 191.65859294 42.71406177 197.27838233 42.70527267 202.89836121 C42.70450077 204.96153415 42.70886509 207.02471633 42.71873093 209.08786583 C42.73140698 211.90374097 42.72559717 214.71899574 42.71514893 217.53486633 C42.72320533 218.35189681 42.73126173 219.16892728 42.73956227 220.01071626 C42.69731917 224.87632757 42.01965938 228.17621217 39.34765625 232.3984375 C33.24457674 238.23616573 28.49625748 239.70940354 20.1953125 239.69921875 C19.02868324 239.70564644 19.02868324 239.70564644 17.83848572 239.71220398 C16.19873017 239.7179293 14.55894923 239.71846082 12.91918945 239.71411133 C10.42159357 239.71095197 7.92518399 239.73442954 5.42773438 239.75976562 C3.82942857 239.762039 2.2311196 239.76274193 0.6328125 239.76171875 C-0.47839211 239.77553337 -0.47839211 239.77553337 -1.61204529 239.78962708 C-7.19034294 239.74028279 -11.01404291 238.75261986 -15.21731597 235.00199705 C-19.75426569 230.2196052 -20.51702193 226.71830004 -20.40751648 220.24497986 C-20.42049805 218.89478621 -20.42049805 218.89478621 -20.43374187 217.51731592 C-20.45527013 214.51213666 -20.43406735 211.50882055 -20.4128418 208.50366211 C-20.41933724 206.3448956 -20.42839986 204.18613552 -20.43983459 202.02738953 C-20.46290276 196.17199158 -20.4482042 190.31724596 -20.42536521 184.461869 C-20.40644513 178.33342105 -20.41760808 172.20501677 -20.42427063 166.07655334 C-20.43061005 155.78620038 -20.41234609 145.4961087 -20.37963867 135.20581055 C-20.34213488 123.30808786 -20.3439277 111.41085993 -20.36667985 99.51311105 C-20.38762513 88.06706938 -20.3803576 76.6212106 -20.3603611 65.17517281 C-20.35237356 60.3040501 -20.35436849 55.43308204 -20.3643856 50.56196404 C-20.37493256 44.82686905 -20.36082119 39.09235103 -20.32764244 33.35734749 C-20.31943122 31.25226536 -20.31972389 29.1471304 -20.32912064 27.04205322 C-20.3405373 24.16902579 -20.32118474 21.29779564 -20.29399109 18.4249115 C-20.30446258 17.59115476 -20.31493407 16.75739802 -20.32572287 15.89837593 C-20.22235793 10.03975442 -18.87215364 7.48739071 -14.65234375 3.3984375 C-9.79675433 0.15738609 -5.64265735 -0.04402821 0 0 Z " fill="#1970E1" transform="translate(443.65234375,369.6015625)"/>
<path d="M0 0 C1.30815674 -0.01583633 2.61631348 -0.03167267 3.96411133 -0.04798889 C5.38883827 -0.04414758 6.81356241 -0.03910863 8.23828125 -0.03295898 C9.70272212 -0.03819495 11.16715961 -0.04447133 12.6315918 -0.05174255 C15.69824106 -0.06214404 18.76442622 -0.05758906 21.83105469 -0.04296875 C25.75908146 -0.02577359 29.68564646 -0.04928399 33.61351013 -0.08445835 C36.63677646 -0.10642838 39.6596927 -0.10499219 42.68301392 -0.09669304 C44.13108932 -0.09587341 45.5791904 -0.10273916 47.02719116 -0.11746407 C49.05191731 -0.13489885 51.07685421 -0.11705446 53.1015625 -0.09765625 C54.25309814 -0.09669449 55.40463379 -0.09573273 56.59106445 -0.09474182 C59.55078125 0.53344727 59.55078125 0.53344727 61.91952515 2.67518616 C63.83256626 6.02718649 64.06821226 8.05319713 64.10009766 11.89672852 C64.11916168 13.16154053 64.13822571 14.42635254 64.15786743 15.72949219 C64.15734459 17.10164502 64.15547058 18.4737979 64.15234375 19.84594727 C64.16012378 21.26172384 64.16879439 22.67749577 64.17831421 24.09326172 C64.19320987 27.05557413 64.19267709 30.01740968 64.18212891 32.97973633 C64.17052927 36.76996894 64.20443133 40.55824995 64.25081825 44.34815979 C64.28032556 47.27025698 64.28203266 50.19188544 64.2757988 53.11410522 C64.27682324 54.51113762 64.28726234 55.90819693 64.30742264 57.30508423 C64.4448535 68.15696868 64.4448535 68.15696868 62.26947021 71.50610352 C59.87648998 73.59976484 57.70464648 74.50070998 54.61328125 75.15844727 C48.1563598 73.84070819 44.04122346 69.090911 39.55078125 64.53344727 C38.66777344 63.65043945 37.78476562 62.76743164 36.875 61.85766602 C33.21289062 58.19555664 33.21289062 58.19555664 29.55078125 54.53344727 C25.8506173 55.76683525 25.00375091 57.1716517 22.61328125 60.22094727 C19.00999409 64.73823897 15.32970801 69.16217089 11.55078125 73.53344727 C7.99555695 77.65750745 4.48283549 81.80555436 1.05078125 86.03344727 C-2.88300445 90.87941516 -6.93369634 95.61443254 -11.0078125 100.34204102 C-14.03880159 103.8666263 -17.01914456 107.42393559 -19.94921875 111.03344727 C-23.38130199 115.2613759 -26.89481715 119.40864804 -30.44921875 123.53344727 C-35.54882995 129.45451542 -40.53012109 135.46115455 -45.44921875 141.53344727 C-50.75485702 148.08289817 -56.15108975 154.53727029 -61.65551758 160.91943359 C-65.6536386 165.57020661 -69.56264466 170.28924223 -73.44921875 175.03344727 C-78.31070594 180.96769461 -83.24153776 186.83178188 -88.25512695 192.63793945 C-91.27438229 196.14102703 -94.22652611 199.68850341 -97.13671875 203.28344727 C-110.10219737 219.23003959 -110.10219737 219.23003959 -116.10546875 220.00610352 C-120.70965428 219.93247803 -122.81987008 218.09649433 -126.02783203 214.96264648 C-126.97891846 213.97675537 -126.97891846 213.97675537 -127.94921875 212.97094727 C-129.35235318 211.58631425 -130.75601403 210.20221453 -132.16015625 208.81860352 C-132.87010742 208.10591309 -133.58005859 207.39322266 -134.31152344 206.65893555 C-137.65930491 203.33027115 -141.11651135 200.12212582 -144.57421875 196.90844727 C-148.55924173 193.1951304 -152.52630152 189.46955105 -156.42578125 185.66625977 C-157.06112793 185.05476074 -157.69647461 184.44326172 -158.35107422 183.81323242 C-159.55516381 182.65367983 -160.75005337 181.48447305 -161.93408203 180.30444336 C-163.70063454 178.56064301 -163.70063454 178.56064301 -166.44921875 176.53344727 C-169.61811857 176.84304238 -171.24794807 177.9635016 -173.43847656 180.19799805 C-173.99295471 180.75593048 -174.54743286 181.31386292 -175.11871338 181.88870239 C-175.7073114 182.49592133 -176.29590942 183.10314026 -176.90234375 183.72875977 C-177.52139587 184.35442841 -178.140448 184.98009705 -178.77825928 185.62472534 C-180.75913405 187.62899579 -182.72961444 189.64310539 -184.69921875 191.65844727 C-187.28396045 194.28981267 -189.87298811 196.91690203 -192.46484375 199.54125977 C-193.09156982 200.17666687 -193.7182959 200.81207397 -194.36401367 201.46673584 C-197.87883997 205.01173283 -201.46704102 208.3680483 -205.28027344 211.59155273 C-211.09032697 216.7933949 -216.46571047 222.49214543 -221.94921875 228.03344727 C-243.41125806 249.72168624 -243.41125806 249.72168624 -248.44921875 250.40844727 C-253.64697488 249.94619623 -257.08030718 246.2265968 -260.44921875 242.53344727 C-262.54637774 239.38770879 -263.02774303 237.4221589 -262.91796875 233.66287231 C-262.00287863 229.50582521 -258.95594296 227.04808702 -255.94921875 224.21704102 C-254.94556274 223.22680687 -254.94556274 223.22680687 -253.92163086 222.21656799 C-251.78224512 220.11519693 -249.61650496 218.04349004 -247.44921875 215.97094727 C-246.02166227 214.57497389 -244.59586116 213.17720305 -243.171875 211.77758789 C-238.04429058 206.76279995 -232.91894922 201.77599675 -227.48632812 197.09033203 C-223.22668681 193.39360412 -219.25603438 189.44979819 -215.29296875 185.43969727 C-214.54640015 184.68934204 -213.79983154 183.93898682 -213.03063965 183.16589355 C-210.6676985 180.79084806 -208.30804505 178.4125791 -205.94921875 176.03344727 C-202.83761229 172.89505509 -199.7225812 169.76011982 -196.60546875 166.62719727 C-195.90627319 165.91970337 -195.20707764 165.21220947 -194.48669434 164.48327637 C-190.50377169 160.48084242 -186.41796392 156.66929547 -182.13143921 152.99301147 C-180.18267447 151.3021824 -178.36363889 149.51636196 -176.57421875 147.65844727 C-173.95027821 144.93687172 -172.56858265 143.66064771 -168.69921875 143.22094727 C-161.30304018 143.93211828 -156.89971851 149.9682282 -151.96484375 155.01391602 C-149.21489447 157.7681354 -146.33420711 160.29448132 -143.37890625 162.82250977 C-140.61089134 165.27674161 -138.05144516 167.92177416 -135.45703125 170.55688477 C-132.85719817 173.11625352 -130.11306228 175.48029126 -127.34765625 177.85766602 C-124.58519581 180.29613418 -122.02180816 182.89654312 -119.44921875 185.53344727 C-115.09196013 183.94993048 -112.62635519 180.55402501 -109.76171875 177.09594727 C-109.230625 176.4655957 -108.69953125 175.83524414 -108.15234375 175.18579102 C-104.3183417 170.6219428 -100.54955048 166.00487041 -96.79296875 161.37719727 C-93.55023587 157.44268137 -90.21890267 153.58699026 -86.890625 149.72485352 C-83.85963591 146.20026824 -80.87929294 142.64295894 -77.94921875 139.03344727 C-74.01543305 134.18747937 -69.96474116 129.45246199 -65.890625 124.72485352 C-62.85963591 121.20026824 -59.87929294 117.64295894 -56.94921875 114.03344727 C-52.55976057 108.62981825 -48.03239066 103.35306271 -43.4921875 98.07641602 C-40.606913 94.72202098 -37.74242813 91.35052738 -34.88671875 87.97094727 C-34.43699707 87.43872559 -33.98727539 86.90650391 -33.52392578 86.3581543 C-32.61853433 85.28631387 -31.71326058 84.21437401 -30.80810547 83.14233398 C-28.98212102 80.98041564 -27.1541155 78.82021147 -25.32592773 76.66015625 C-24.40989996 75.57778472 -23.49404639 74.49526574 -22.57836914 73.41259766 C-20.26465087 70.67707994 -17.9487798 67.94343515 -15.62890625 65.21313477 C-11.29312894 60.10620151 -6.9848553 54.98449709 -2.76171875 49.78344727 C1.20552277 44.90674785 5.32983556 40.1914391 9.55078125 35.53344727 C8.00052304 31.81625355 5.71854353 29.46561171 2.86328125 26.65844727 C1.52716797 25.34360352 1.52716797 25.34360352 0.1640625 24.00219727 C-1.98817797 21.96898952 -4.16720938 20.04170552 -6.44921875 18.15844727 C-9.16075743 15.78585092 -10.19190735 14.74386375 -11.44921875 11.53344727 C-11.31485169 7.77116961 -11.0905524 5.38205895 -8.79760742 2.34803772 C-5.71583257 -0.03323727 -3.87187887 0.02084186 0 0 Z " fill="#FBBE1A" transform="translate(422.44921875,259.466552734375)"/>
<path d="M0 0 C0.90951416 -0.00524185 1.81902832 -0.0104837 2.75610352 -0.0158844 C4.67235293 -0.02228628 6.58864174 -0.02099143 8.50488281 -0.01245117 C11.42844842 -0.00393262 14.35006418 -0.03274146 17.2734375 -0.06445312 C19.14062442 -0.06606519 21.00781478 -0.06548751 22.875 -0.0625 C23.74390869 -0.07373398 24.61281738 -0.08496796 25.50805664 -0.09654236 C31.93497849 -0.02311142 35.34465854 1.76735111 40.25 5.99609375 C42.7237646 8.99065089 42.56837874 12.10426005 42.58467102 15.80317688 C42.59182632 16.9177124 42.59898163 18.03224792 42.60635376 19.18055725 C42.60904266 20.40399338 42.61173157 21.6274295 42.61450195 22.88793945 C42.62435875 24.81997726 42.62435875 24.81997726 42.63441467 26.79104614 C42.65543659 31.06380979 42.66581472 35.33657373 42.67578125 39.609375 C42.67982939 41.08118394 42.68394633 42.5529927 42.68813133 44.02480125 C42.70717824 50.93927074 42.72141079 57.85372957 42.7297433 64.76822025 C42.7395168 72.74639678 42.76584108 80.72429595 42.80624419 88.70237476 C42.83641286 94.87148247 42.85121284 101.0405107 42.85452431 107.20969075 C42.85687381 110.89320288 42.86582074 114.57641853 42.89098549 118.25985146 C42.91861537 122.37043321 42.91443284 126.48039573 42.9074707 130.59106445 C42.92028076 131.80842789 42.93309082 133.02579132 42.94628906 134.28004456 C42.90723807 140.5956007 42.85727569 144.72747623 38.4375 149.43359375 C33.33407183 153.46742914 27.70603291 154.03971841 21.40625 154 C20.57089722 154.00619858 19.73554443 154.01239716 18.87487793 154.01878357 C17.12021033 154.02584298 15.3654752 154.02277604 13.61083984 154.01000977 C10.94372123 153.99612613 8.28010549 154.03028996 5.61328125 154.06835938 C3.89843665 154.06931064 2.18358771 154.06745134 0.46875 154.0625 C-0.31794067 154.07575821 -1.10463135 154.08901642 -1.91516113 154.10267639 C-7.76651998 154.0054636 -12.1763443 152.3989376 -16.5625 148.43359375 C-19.15594304 144.75784304 -19.93902508 142.26498005 -19.95018005 137.78553772 C-19.96008469 136.65983871 -19.96998932 135.53413971 -19.98019409 134.37432861 C-19.97569244 133.1487323 -19.9711908 131.92313599 -19.96655273 130.66040039 C-19.97341599 129.36232956 -19.98027924 128.06425873 -19.98735046 126.72685242 C-20.0052741 123.17306816 -20.00411505 119.61953093 -19.99840808 116.06571507 C-19.99531496 113.09604445 -20.00141005 110.12642118 -20.00744683 107.1567573 C-20.0214879 100.14946795 -20.01993437 93.14230052 -20.00854492 86.13500977 C-19.99706455 78.91229132 -20.01113867 71.68994423 -20.0379414 64.46727473 C-20.06011179 58.25988627 -20.06673277 52.05261427 -20.06086498 45.84518903 C-20.05749731 42.1405027 -20.05989758 38.43605439 -20.07711601 34.73140144 C-20.09548285 30.59942299 -20.08138443 26.46816517 -20.06420898 22.33618164 C-20.07387695 21.11260956 -20.08354492 19.88903748 -20.09350586 18.62838745 C-20.0383389 12.29768918 -19.95021485 8.18037217 -15.5625 3.43359375 C-10.56574847 -0.04766659 -5.87181279 -0.01983813 0 0 Z " fill="#1971E1" transform="translate(356.5625,455.56640625)"/>
<path d="M0 0 C8.559375 -0.061875 17.11875 -0.12375 25.9375 -0.1875 C28.62253662 -0.21481201 31.30757324 -0.24212402 34.07397461 -0.27026367 C36.22509309 -0.27903343 38.37621659 -0.28667621 40.52734375 -0.29296875 C42.17482605 -0.3159906 42.17482605 -0.3159906 43.85559082 -0.33947754 C52.79394927 -0.34249216 60.72576586 0.79591889 67.42578125 7.15234375 C72.85969574 13.53011436 74.75643983 19.85448674 74.3515625 28.17578125 C73.42452586 35.62297559 70.43885248 40.84808938 65 46 C63.05261757 47.49696745 61.11639754 48.74023956 59 50 C60.19625 50.515625 61.3925 51.03125 62.625 51.5625 C68.48501458 54.50806485 71.6438166 58.64928211 74.875 64.25 C77.22181942 72.0727314 76.67975732 79.2038256 73.33203125 86.64453125 C69.9210281 92.67630514 65.19993631 97.84154188 59 101 C39.89588211 105.77602947 19.69207398 104 0 104 C0 69.68 0 35.36 0 0 Z " fill="#08151F" transform="translate(90,638)"/>
<path d="M0 0 C0.92933853 -0.00619858 1.85867706 -0.01239716 2.81617737 -0.01878357 C4.7753088 -0.02586537 6.73450062 -0.02273644 8.69360352 -0.01000977 C11.67903246 0.00384881 14.66132011 -0.03022996 17.64648438 -0.06835938 C19.55599035 -0.06931076 21.46550021 -0.06745072 23.375 -0.0625 C24.70343178 -0.08238731 24.70343178 -0.08238731 26.05870056 -0.10267639 C31.29812435 -0.02459496 34.58664811 0.81531491 38.7769928 4.00648499 C43.50990441 9.00540314 43.69197634 13.27500919 43.65795898 19.85131836 C43.66482224 20.77875351 43.67168549 21.70618866 43.67875671 22.66172791 C43.69703392 25.72255838 43.69318582 28.78287674 43.6875 31.84375 C43.69206137 33.97457547 43.69736682 36.10539946 43.7033844 38.23622131 C43.71231734 42.70075459 43.70989024 47.165109 43.69995117 51.62963867 C43.68846182 57.34737259 43.70867189 63.0644889 43.73786831 68.78214169 C43.75622544 73.18225519 43.75593878 77.58222056 43.75023079 81.98236275 C43.75007751 84.09026519 43.75612702 86.19817763 43.76852226 88.30604362 C43.78342078 91.25512164 43.77276315 94.20305704 43.75561523 97.15209961 C43.7652832 98.02034363 43.77495117 98.88858765 43.78491211 99.78314209 C43.71921665 105.18608038 42.86987479 108.29634884 39.25390625 112.56640625 C33.78132581 116.62211139 29.50880081 117.16205955 22.8125 117.09765625 C21.92659683 117.10148315 21.04069366 117.10531006 20.12794495 117.10925293 C18.26472835 117.11196203 16.40147307 117.10467134 14.53833008 117.08789062 C11.69591167 117.06644025 8.85601313 117.08773874 6.01367188 117.11328125 C4.19660904 117.11063829 2.37954777 117.10551398 0.5625 117.09765625 C-0.70334679 117.10980164 -0.70334679 117.10980164 -1.99476624 117.12219238 C-7.3879359 117.03695771 -10.45982209 116.1303368 -14.74609375 112.56640625 C-19.51041164 107.15826161 -19.90133574 103.7681296 -19.9230957 96.71386719 C-19.9296669 95.79662369 -19.9362381 94.87938019 -19.94300842 93.93434143 C-19.9627668 90.88982059 -19.97441011 87.84534916 -19.984375 84.80078125 C-19.98845053 83.76201088 -19.99252605 82.72324051 -19.99672508 81.65299225 C-20.01759736 76.15424294 -20.03189367 70.65551866 -20.04125977 65.15673828 C-20.05232231 59.47596734 -20.08671735 53.79558832 -20.12643147 48.1149559 C-20.1525751 43.74832429 -20.16094965 39.38178631 -20.16454124 35.01508331 C-20.16941358 32.92111822 -20.1810459 30.82715748 -20.19957924 28.73326874 C-20.22392076 25.80070454 -20.22301454 22.86915769 -20.21606445 19.93652344 C-20.22887451 19.07291702 -20.24168457 18.20931061 -20.25488281 17.3195343 C-20.20822433 11.91239428 -19.32898256 8.86214054 -15.74609375 4.56640625 C-10.70588799 0.1011856 -6.42232248 -0.03588582 0 0 Z " fill="#1970E0" transform="translate(263.74609375,492.43359375)"/>
<path d="M0 0 C0.86124481 -0.0127597 1.72248962 -0.02551941 2.60983276 -0.03866577 C3.53281158 -0.04089142 4.45579041 -0.04311707 5.40673828 -0.04541016 C6.8418425 -0.05539536 6.8418425 -0.05539536 8.30593872 -0.06558228 C10.32828857 -0.07569907 12.35067174 -0.0803996 14.37304688 -0.08007812 C17.45905895 -0.08444718 20.54363579 -0.12076588 23.62939453 -0.15869141 C25.59683757 -0.16456066 27.56428739 -0.16852933 29.53173828 -0.17041016 C30.91013382 -0.19196671 30.91013382 -0.19196671 32.31637573 -0.21395874 C37.9122768 -0.17426873 41.21369637 0.48013906 45.60205078 4.29052734 C48.72281671 7.63206891 48.9877096 10.00722334 49.02197266 14.52441406 C49.03788452 15.78607391 49.05379639 17.04773376 49.07019043 18.34762573 C49.07145784 19.72182153 49.07163445 21.09601871 49.07080078 22.47021484 C49.07790515 23.885023 49.08560456 25.29982829 49.09387207 26.71463013 C49.10731048 29.67864998 49.10888908 32.64240354 49.10302734 35.60644531 C49.09713687 39.39523969 49.12769612 43.18275011 49.16814423 46.97129631 C49.19406332 49.8933901 49.19689484 52.81517665 49.19325256 55.73736954 C49.19494046 57.1335688 49.20455131 58.52978276 49.22239685 59.92586899 C49.36190809 72.19107822 49.36190809 72.19107822 46.31494141 76.06835938 C42.65213913 79.06861373 40.05323314 80.53183841 35.29589844 80.58105469 C34.45467438 80.59381439 33.61345032 80.6065741 32.74673462 80.61972046 C31.84562958 80.62194611 30.94452454 80.62417175 30.01611328 80.62646484 C29.08157318 80.63312164 28.14703308 80.63977844 27.18417358 80.64663696 C25.20890264 80.65675282 23.2335976 80.66145431 21.25830078 80.66113281 C18.24470349 80.66550175 15.23257614 80.70182079 12.21923828 80.73974609 C10.29736827 80.74561541 8.37549133 80.74958403 6.45361328 80.75146484 C5.5565567 80.76583588 4.65950012 80.78020691 3.73526001 80.79501343 C-1.81334891 80.7547292 -5.05005817 80.05977413 -9.39794922 76.29052734 C-12.97480454 72.51152209 -13.90190444 70.2209362 -13.93139648 65.03491211 C-13.94723282 63.79334854 -13.96306915 62.55178497 -13.97938538 61.27259827 C-13.97554349 59.9257062 -13.97050421 58.5788171 -13.96435547 57.23193359 C-13.96959457 55.84097376 -13.97587211 54.45001749 -13.98313904 53.05906677 C-13.99353061 50.14801278 -13.98900091 47.23744797 -13.97436523 44.32641602 C-13.95718612 40.60596954 -13.98066528 36.88706878 -14.01585484 33.16679478 C-14.03787576 30.29528172 -14.03637618 27.42413581 -14.02808952 24.55256462 C-14.0272724 23.18150068 -14.03409017 21.81040914 -14.04886055 20.43942451 C-14.15860049 8.40923372 -14.15860049 8.40923372 -11.10864258 4.52856445 C-7.4110539 1.47571429 -4.8142729 0.04863291 0 0 Z " fill="#1970E1" transform="translate(173.39794921875,528.70947265625)"/>
<path d="M0 0 C2.33621067 2.1025896 3.63701392 3.84725204 5.09375 6.609375 C5.50109375 7.3621875 5.9084375 8.115 6.328125 8.890625 C8.12508348 12.81628813 8.46732915 16.21749771 8.45727539 20.52050781 C8.45716209 22.14173553 8.45716209 22.14173553 8.45704651 23.79571533 C8.45188522 24.95625427 8.44672394 26.11679321 8.44140625 27.3125 C8.4399913 28.50542664 8.43857635 29.69835327 8.43711853 30.9274292 C8.43152038 34.73810329 8.41896819 38.54871866 8.40625 42.359375 C8.40123476 44.94270748 8.3966719 47.52604089 8.39257812 50.109375 C8.38155155 56.44273096 8.36428814 62.77604303 8.34375 69.109375 C2.73375 69.109375 -2.87625 69.109375 -8.65625 69.109375 C-9.15125 65.149375 -9.15125 65.149375 -9.65625 61.109375 C-10.25953125 61.51929688 -10.8628125 61.92921875 -11.484375 62.3515625 C-12.28359375 62.89039063 -13.0828125 63.42921875 -13.90625 63.984375 C-14.69515625 64.51804687 -15.4840625 65.05171875 -16.296875 65.6015625 C-23.8513161 70.42940069 -31.82861331 70.91188743 -40.65625 70.109375 C-47.36424806 68.32738567 -51.74690275 63.65393398 -55.65625 58.109375 C-58.56176668 52.29834164 -58.53548354 45.68948762 -57.00390625 39.453125 C-54.38141284 31.97958155 -50.48034684 28.17379746 -43.6171875 24.46875 C-38.73908849 22.45524781 -33.79254702 22.7099386 -28.59375 22.796875 C-27.62630859 22.79365234 -26.65886719 22.79042969 -25.66210938 22.78710938 C-20.60840664 22.82515916 -16.38442171 23.10807466 -11.65625 25.109375 C-11.91014158 19.28256323 -12.26741013 15.36521972 -16.65625 11.109375 C-19.34731907 9.76384047 -21.52790422 9.90343386 -24.53125 9.859375 C-25.58054687 9.83359375 -26.62984375 9.8078125 -27.7109375 9.78125 C-31.01152185 10.14895436 -32.32288604 10.7868639 -34.65625 13.109375 C-34.98625 14.099375 -35.31625 15.089375 -35.65625 16.109375 C-41.59625 16.109375 -47.53625 16.109375 -53.65625 16.109375 C-53.65625 8.78280866 -51.84487274 5.71073825 -47.1171875 0.37109375 C-34.77845976 -11.41209886 -13.01442987 -9.26321185 0 0 Z " fill="#09151F" transform="translate(764.65625,672.890625)"/>
<path d="M0 0 C5.43223458 4.20848943 7.90158867 8.96948169 9.6953125 15.52734375 C10.19124744 19.87686058 10.1643445 24.16214917 10.0859375 28.53515625 C10.08027771 29.74178925 10.07461792 30.94842224 10.06878662 32.19161987 C10.0465535 36.01227981 9.99637927 39.83197146 9.9453125 43.65234375 C9.92523072 46.25649679 9.90698291 48.86066466 9.890625 51.46484375 C9.84673118 57.8193785 9.77779268 64.17319745 9.6953125 70.52734375 C4.4153125 70.52734375 -0.8646875 70.52734375 -6.3046875 70.52734375 C-6.3046875 67.55734375 -6.3046875 64.58734375 -6.3046875 61.52734375 C-6.9646875 61.52734375 -7.6246875 61.52734375 -8.3046875 61.52734375 C-8.3046875 62.18734375 -8.3046875 62.84734375 -8.3046875 63.52734375 C-17.13428555 70.36316159 -27.25636574 72.80157353 -38.3046875 71.52734375 C-45.43245065 69.43094282 -49.4492873 65.91619508 -53.24609375 59.61328125 C-56.41038256 53.37811437 -56.5634682 45.50956119 -54.46875 38.8828125 C-51.19719404 32.43850595 -46.28920742 28.30701499 -39.7421875 25.3828125 C-34.88794299 24.17476756 -30.22454286 24.23787955 -25.2421875 24.27734375 C-23.77168945 24.26574219 -23.77168945 24.26574219 -22.27148438 24.25390625 C-21.32208984 24.25648438 -20.37269531 24.2590625 -19.39453125 24.26171875 C-18.53722412 24.26397461 -17.67991699 24.26623047 -16.79663086 24.26855469 C-14.01132445 24.55780959 -11.84752967 25.38125801 -9.3046875 26.52734375 C-9.93274115 21.69976717 -10.65333821 17.6129259 -13.1796875 13.40234375 C-17.94751466 10.54164746 -22.87755703 10.63153129 -28.3046875 11.52734375 C-31.4220461 13.3418469 -32.14377255 14.04459891 -33.3046875 17.52734375 C-39.5746875 17.52734375 -45.8446875 17.52734375 -52.3046875 17.52734375 C-50.00496091 8.3284374 -47.07222089 2.80428527 -39.3046875 -2.47265625 C-27.85383668 -8.90923977 -10.68793285 -6.82940794 0 0 Z " fill="#08151E" transform="translate(336.3046875,671.47265625)"/>
<path d="M0 0 C4.73134809 3.83105108 7.77149225 8.56447675 9.6875 14.3125 C9.77576965 16.13782586 9.80513203 17.96624689 9.80102539 19.79370117 C9.80091209 21.47510445 9.80091209 21.47510445 9.80079651 23.19047546 C9.79563522 24.39992325 9.79047394 25.60937103 9.78515625 26.85546875 C9.7837413 28.09420242 9.78232635 29.3329361 9.78086853 30.60920715 C9.77621602 33.89881537 9.7672339 37.1883746 9.75616455 40.47796631 C9.74592629 43.83621623 9.74136574 47.19447333 9.73632812 50.55273438 C9.72529145 57.1393446 9.7080229 63.72591278 9.6875 70.3125 C4.4075 70.3125 -0.8725 70.3125 -6.3125 70.3125 C-6.8075 66.3525 -6.8075 66.3525 -7.3125 62.3125 C-7.83457031 62.71082031 -8.35664063 63.10914063 -8.89453125 63.51953125 C-17.4308565 69.66389145 -26.74736528 72.60137382 -37.3125 71.3125 C-43.85839708 69.39387499 -49.74339604 65.28604746 -53.484375 59.5 C-56.25696803 53.22243087 -56.50043377 45.54097853 -54.65625 38.9765625 C-51.64570926 32.20284584 -46.19296092 27.69943097 -39.39770508 24.90795898 C-35.26790351 23.72863736 -31.07393494 23.92465638 -26.8125 24 C-25.90113281 23.99677734 -24.98976562 23.99355469 -24.05078125 23.99023438 C-18.76138622 24.0322137 -14.31638702 24.58725873 -9.3125 26.3125 C-10.08347111 19.06458169 -10.08347111 19.06458169 -13.1875 12.625 C-18.07353494 10.57286533 -23.09545751 10.51595018 -28.3125 11.3125 C-31.43179285 13.12285101 -32.15188738 13.83066215 -33.3125 17.3125 C-39.5825 17.3125 -45.8525 17.3125 -52.3125 17.3125 C-50.07825248 7.25838616 -47.56599262 2.88136715 -39.125 -2.625 C-28.16646618 -9.20904782 -10.23975695 -6.95924222 0 0 Z " fill="#08141E" transform="translate(229.3125,671.6875)"/>
<path d="M0 0 C6.6 0 13.2 0 20 0 C20.495 26.235 20.495 26.235 21 53 C26.38049067 47.68090744 26.38049067 47.68090744 31.375 42.125 C31.97183594 41.46757813 32.56867187 40.81015625 33.18359375 40.1328125 C35.07045171 38.01649293 35.07045171 38.01649293 36.59765625 35.4921875 C38.92650041 32.33761729 40.47286811 30.81289646 44 29 C51.92772751 27.87289497 60.03974962 28.44818741 68 29 C63.19715445 34.81015376 58.01460623 40.17161255 52.68505859 45.50024414 C51.23374698 46.9537779 49.79066512 48.41518173 48.34765625 49.87695312 C47.43371094 50.79283203 46.51976562 51.70871094 45.578125 52.65234375 C44.74700195 53.48757568 43.91587891 54.32280762 43.05957031 55.18334961 C41 57 41 57 39 57 C42.05303437 62.63579694 45.5934273 67.69061184 49.4375 72.8125 C50.68031589 74.48521038 51.92248653 76.15840033 53.1640625 77.83203125 C53.79602539 78.6823291 54.42798828 79.53262695 55.07910156 80.40869141 C58.17867355 84.59004081 61.25182605 88.79012067 64.3125 93 C64.86929443 93.75901611 65.42608887 94.51803223 65.99975586 95.30004883 C66.51159424 96.00540771 67.02343262 96.7107666 67.55078125 97.4375 C68.22620972 98.36369141 68.22620972 98.36369141 68.9152832 99.30859375 C70 101 70 101 71 104 C51.07403509 106.51370736 51.07403509 106.51370736 44.84667969 102.67138672 C41.15893508 99.09715837 38.66786579 94.76860084 36.24267578 90.27636719 C34.60093105 87.26897468 32.76382773 84.41679648 30.87646484 81.55883789 C30.02060055 80.258503 29.18743705 78.94284763 28.38134766 77.61108398 C27.15480406 75.58311534 27.15480406 75.58311534 25 73 C23.35 72.67 21.7 72.34 20 72 C20 82.56 20 93.12 20 104 C13.4 104 6.8 104 0 104 C0 69.68 0 35.36 0 0 Z " fill="#0A1822" transform="translate(862,638)"/>
<path d="M0 0 C9.55152515 6.67761493 13.70098582 14.74693057 16 26 C16 30.29 16 34.58 16 39 C-0.5 39 -17 39 -34 39 C-31.55259072 48.6867036 -31.55259072 48.6867036 -25 54 C-21.06035412 55.96982294 -16.29355977 55.45959231 -12 55 C-9.19318235 53.80791528 -7.16577152 52.16577152 -5 50 C-3.5112814 49.91330568 -2.018555 49.89296506 -0.52734375 49.90234375 C0.37177734 49.90556641 1.27089844 49.90878906 2.19726562 49.91210938 C3.61555664 49.92467773 3.61555664 49.92467773 5.0625 49.9375 C6.01189453 49.94201172 6.96128906 49.94652344 7.93945312 49.95117188 C10.29303065 49.9629989 12.64648477 49.97947975 15 50 C12.7098913 58.02681465 9.73364282 62.84649115 3 68 C-0.24486454 69.72205531 -3.47601681 70.97749711 -7 72 C-7.61875 72.19078125 -8.2375 72.3815625 -8.875 72.578125 C-19.66418038 74.72009463 -29.4832559 72.96825132 -38.6875 67.25 C-46.42603118 61.76292301 -51.11637712 54.99809561 -53.58984375 45.80859375 C-54.18036748 41.7649122 -54.2245881 37.76928688 -54.25 33.6875 C-54.2809375 32.46256836 -54.2809375 32.46256836 -54.3125 31.21289062 C-54.37888025 20.79948889 -50.11264464 12.69566552 -43.21875 5.015625 C-32.13615695 -5.61276342 -13.29106638 -8.08917685 0 0 Z " fill="#08141E" transform="translate(567,670)"/>
<path d="M0 0 C5.81278631 4.49593083 9.56332577 10.31403807 11.70703125 17.3203125 C12.22044015 21.7073744 12.17494656 26.03728025 12.09765625 30.44921875 C12.09199646 31.67946274 12.08633667 32.90970673 12.08050537 34.17723083 C12.05824045 38.07949895 12.00805965 41.98082518 11.95703125 45.8828125 C11.93468201 48.5397001 11.91870521 51.19657885 11.90234375 53.85351562 C11.8584076 60.34280695 11.78944623 66.83140041 11.70703125 73.3203125 C5.10703125 73.3203125 -1.49296875 73.3203125 -8.29296875 73.3203125 C-8.30755127 71.86737793 -8.32213379 70.41444336 -8.3371582 68.91748047 C-8.39521993 63.51635379 -8.47245314 58.11564055 -8.55541992 52.71484375 C-8.58863208 50.37930013 -8.61667551 48.04367697 -8.6394043 45.70800781 C-8.67301776 42.34666105 -8.72533878 38.98604081 -8.78125 35.625 C-8.78763992 34.58415253 -8.79402985 33.54330505 -8.8006134 32.47091675 C-8.91050721 27.02699397 -9.19222591 23.00105472 -12.29296875 18.3203125 C-16.08558591 14.87247872 -19.95031595 14.85722339 -24.859375 15.046875 C-28.37791807 15.44221692 -30.46159001 16.16307156 -33.29296875 18.3203125 C-37.56161741 24.30604475 -37.89344499 30.23579775 -37.90234375 37.3828125 C-37.91888 38.41470703 -37.93541626 39.44660156 -37.95245361 40.50976562 C-38.00073136 43.78000969 -38.02226009 47.0497894 -38.04296875 50.3203125 C-38.07114526 52.54820019 -38.10107503 54.77606644 -38.1328125 57.00390625 C-38.20648525 62.44267008 -38.25618357 67.88117917 -38.29296875 73.3203125 C-44.56296875 73.3203125 -50.83296875 73.3203125 -57.29296875 73.3203125 C-57.29296875 48.5703125 -57.29296875 23.8203125 -57.29296875 -1.6796875 C-51.35296875 -1.6796875 -45.41296875 -1.6796875 -39.29296875 -1.6796875 C-38.96296875 1.6203125 -38.63296875 4.9203125 -38.29296875 8.3203125 C-37.49246094 7.50626953 -37.49246094 7.50626953 -36.67578125 6.67578125 C-27.25100903 -2.37395678 -12.17777803 -7.33230424 0 0 Z " fill="#08151F" transform="translate(415.29296875,668.6796875)"/>
<path d="M0 0 C25.41 0 50.82 0 77 0 C77 5.94 77 11.88 77 18 C67.76 18 58.52 18 49 18 C49 46.38 49 74.76 49 104 C42.4 104 35.8 104 29 104 C29 75.62 29 47.24 29 18 C19.43 18 9.86 18 0 18 C0 12.06 0 6.12 0 0 Z " fill="#08141E" transform="translate(583,638)"/>
<path d="M0 0 C5.23194518 3.91258509 8.60681704 9.68094317 10.921875 15.71875 C10.921875 17.69875 10.921875 19.67875 10.921875 21.71875 C4.321875 21.71875 -2.278125 21.71875 -9.078125 21.71875 C-10.398125 19.07875 -11.718125 16.43875 -13.078125 13.71875 C-17.35412784 10.67803687 -20.90002738 10.00452964 -26.078125 10.71875 C-31.33095283 12.93617263 -34.543681 15.63138949 -37.29077148 20.73657227 C-38.66076114 24.18554778 -38.62929532 27.48802268 -38.515625 31.15625 C-38.49471802 32.28003052 -38.49471802 32.28003052 -38.47338867 33.42651367 C-38.24916561 40.12033888 -37.60196742 45.25800364 -32.578125 50.15625 C-28.20582836 52.8889354 -24.1230864 53.22611803 -19.078125 52.71875 C-12.81317389 50.67059291 -12.70086077 49.0585376 -9.078125 42.71875 C-2.478125 42.71875 4.121875 42.71875 10.921875 42.71875 C9.62135139 51.82241526 6.17641141 58.71699309 -1.14453125 64.47265625 C-11.40409428 71.08437465 -23.20117496 72.43387873 -35.0703125 70.140625 C-44.74505996 66.74055401 -52.16020899 58.970705 -56.9609375 50.1015625 C-62.0808907 39.18138259 -61.43575225 25.9645424 -57.5390625 14.73046875 C-53.25764687 5.90434187 -45.23777023 -1.32066061 -36.203125 -5.09375 C-23.58448727 -8.82541552 -11.04636657 -6.8105418 0 0 Z " fill="#09151F" transform="translate(842.078125,672.28125)"/>
<path d="M0 0 C6.46028806 4.47066316 10.94064581 9.89845349 12.79296875 17.64453125 C12.79296875 19.29453125 12.79296875 20.94453125 12.79296875 22.64453125 C6.19296875 22.64453125 -0.40703125 22.64453125 -7.20703125 22.64453125 C-8.52703125 20.00453125 -9.84703125 17.36453125 -11.20703125 14.64453125 C-15.48303409 11.60381812 -19.02893363 10.93031089 -24.20703125 11.64453125 C-29.205339 13.88546996 -32.96669235 16.50493025 -35.20703125 21.64453125 C-37.50138497 28.6423101 -37.62678983 39.6653324 -34.64453125 46.39453125 C-32.30613797 50.10314095 -29.37504248 52.30873861 -25.20703125 53.64453125 C-20.30660868 54.38385999 -15.68821472 53.77842814 -11.20703125 51.64453125 C-9.36904496 49.01883655 -9.00272104 46.82729041 -8.20703125 43.64453125 C-1.27703125 43.64453125 5.65296875 43.64453125 12.79296875 43.64453125 C11.38248226 53.51793666 8.01818352 59.55562304 0.2890625 65.9140625 C-8.74069354 72.17412811 -18.59196157 72.66314905 -29.20703125 71.64453125 C-38.88315514 69.8135855 -45.7277218 64.17653213 -51.8359375 56.6328125 C-58.23162881 47.22064588 -59.23866967 36.78390794 -58.20703125 25.64453125 C-55.95950328 14.76243254 -50.42966633 5.93608595 -41.20703125 -0.35546875 C-27.96449012 -7.38074905 -12.91664219 -7.93287582 0 0 Z " fill="#09151F" transform="translate(493.20703125,671.35546875)"/>
<path d="M0 0 C6.6 0 13.2 0 20 0 C20 34.32 20 68.64 20 104 C13.4 104 6.8 104 0 104 C0 69.68 0 35.36 0 0 Z " fill="#07141D" transform="translate(252,638)"/>
<path d="M0 0 C0 6.27 0 12.54 0 19 C-3.031875 19.12375 -3.031875 19.12375 -6.125 19.25 C-11.49489354 19.68728775 -15.05540461 20.05540461 -19 24 C-22.99895401 29.94264465 -23.6000061 35.38203487 -23.609375 42.40625 C-23.62591125 43.3715564 -23.64244751 44.33686279 -23.65948486 45.3314209 C-23.70772464 48.38768021 -23.72928248 51.44344281 -23.75 54.5 C-23.77817975 56.583358 -23.80810996 58.6666931 -23.83984375 60.75 C-23.91674468 65.83355654 -23.9574881 70.91557675 -24 76 C-30.6 76 -37.2 76 -44 76 C-44 51.25 -44 26.5 -44 1 C-38.06 1 -32.12 1 -26 1 C-25.67 4.3 -25.34 7.6 -25 11 C-24.525625 10.278125 -24.05125 9.55625 -23.5625 8.8125 C-16.82915959 1.42224833 -9.66808255 0 0 0 Z " fill="#091621" transform="translate(702,666)"/>
<path d="M0 0 C24.09629045 -0.50907656 24.09629045 -0.50907656 30.703125 4.21875 C33.50899959 6.9937908 34.35130098 9.69841771 34.5625 13.5 C34.29334758 17.94101499 32.97553438 20.62236637 30 24 C25.34648027 27.46030954 20.83157361 28.13439725 15.13671875 28.09765625 C14.33709717 28.09515869 13.53747559 28.09266113 12.71362305 28.09008789 C11.71500244 28.08098389 10.71638184 28.07187988 9.6875 28.0625 C4.8921875 28.0315625 4.8921875 28.0315625 0 28 C0 18.76 0 9.52 0 0 Z " fill="#FAFBFC" transform="translate(111,696)"/>
<path d="M0 0 C3.87542277 -0.0811135 7.74913882 -0.1405605 11.625 -0.1875 C13.26662109 -0.22520508 13.26662109 -0.22520508 14.94140625 -0.26367188 C21.73665491 -0.32544686 26.61372705 -0.04764566 31.875 4.6875 C33.54767465 8.12577566 33.77335275 11.31061072 33 15 C30.99788746 18.49794376 28.34830424 20.76779717 25 23 C22.36450195 23.22705078 22.36450195 23.22705078 19.23828125 23.1953125 C18.12001953 23.18886719 17.00175781 23.18242188 15.84960938 23.17578125 C14.09874023 23.15064453 14.09874023 23.15064453 12.3125 23.125 C11.13365234 23.11597656 9.95480469 23.10695313 8.74023438 23.09765625 C5.82673658 23.07406517 2.91334296 23.03819386 0 23 C0 15.41 0 7.82 0 0 Z " fill="#FCFCFD" transform="translate(111,656)"/>
<path d="M0 0 C2.1953125 0.80859375 2.1953125 0.80859375 5.3828125 2.30859375 C5.82685003 6.74896901 5.70303713 8.80942007 3.2578125 12.62109375 C-1.51893074 17.08631026 -6.09958214 17.71594447 -12.43359375 17.56640625 C-15.64405588 17.18735348 -17.93654143 16.07389726 -20.6171875 14.30859375 C-22.99077444 10.74821334 -23.35678131 9.49962536 -22.6171875 5.30859375 C-17.53696456 -2.5800623 -8.26549726 -2.18357166 0 0 Z " fill="#F5F7F8" transform="translate(748.6171875,709.69140625)"/>
<path d="M0 0 C1.21171875 -0.02578125 2.4234375 -0.0515625 3.671875 -0.078125 C7.5248711 0.27520652 9.93175572 1.31605395 13.25 3.25 C13.86172472 10.46835174 13.86172472 10.46835174 11 14.125 C5.20339964 18.60419119 0.47298291 18.95729506 -6.75 18.25 C-10.49030185 16.64701349 -11.48158465 15.65262302 -13.75 12.25 C-14.1875 9.375 -14.1875 9.375 -13.75 6.25 C-9.27723367 0.95330303 -6.78314834 0.08586264 0 0 Z " fill="#F8F9FA" transform="translate(313.75,708.75)"/>
<path d="M0 0 C0.9075 0.495 1.815 0.99 2.75 1.5 C3.36002179 8.69825708 3.36002179 8.69825708 0.5625 12.375 C-5.06379328 16.62597714 -10.29111912 17.43377954 -17.25 16.5 C-20.36000511 15.17606208 -22.70116529 13.59766942 -24.25 10.5 C-24.625 7.6875 -24.625 7.6875 -24.25 4.5 C-18.31575984 -2.71731912 -8.51261457 -3.69810305 0 0 Z " fill="#F8FAFB" transform="translate(217.25,710.5)"/>
<path d="M0 0 C15.18 0 30.36 0 46 0 C46 0.66 46 1.32 46 2 C31.48 2 16.96 2 2 2 C2 35 2 68 2 102 C17.51 102 33.02 102 49 102 C48.34 102.66 47.68 103.32 47 104 C31.49 104 15.98 104 0 104 C0 69.68 0 35.36 0 0 Z " fill="#25303A" transform="translate(90,638)"/>
<path d="M0 0 C6.27 0 12.54 0 19 0 C19 18.48 19 36.96 19 56 C18.67 56 18.34 56 18 56 C18 37.85 18 19.7 18 1 C12.72 1 7.44 1 2 1 C2 34.33 2 67.66 2 102 C7.28 102 12.56 102 18 102 C18 91.44 18 80.88 18 70 C20.31 70 22.62 70 25 70 C25 70.33 25 70.66 25 71 C23.02 71 21.04 71 19 71 C19 81.89 19 92.78 19 104 C12.73 104 6.46 104 0 104 C0 69.68 0 35.36 0 0 Z " fill="#03090F" transform="translate(862,638)"/>
<path d="M0 0 C3.9439993 1.97199965 6.83491548 4.12563823 9 8 C9.33 9.98 9.66 11.96 10 14 C-0.23 14 -10.46 14 -21 14 C-19.86717448 8.33587239 -18.21459301 5.01326637 -13.9375 1.125 C-9.31545511 -0.64514485 -4.88061099 -0.6521815 0 0 Z " fill="#F9FAFB" transform="translate(554,682)"/>
<path d="M0 0 C0.33 0 0.66 0 1 0 C1.00808685 1.07883957 1.01617371 2.15767914 1.02450562 3.26921082 C1.10199267 13.43661427 1.18973856 23.60388433 1.28752708 33.7711134 C1.33747138 38.99817946 1.38380171 44.2252255 1.421875 49.45239258 C1.45875121 54.49695887 1.50511775 59.54135686 1.55806351 64.58577919 C1.57659499 66.51025757 1.59170756 68.43477201 1.60334396 70.35930443 C1.62022761 73.05505988 1.64926795 75.75043094 1.68115234 78.44604492 C1.68331253 79.24158279 1.68547272 80.03712067 1.68769836 80.85676575 C1.75064375 85.02308581 2.17521262 88.24515215 4 92 C4.309375 92.9075 4.61875 93.815 4.9375 94.75 C5.288125 95.4925 5.63875 96.235 6 97 C6.99 97.33 7.98 97.66 9 98 C9 98.66 9 99.32 9 100 C21.54 100.33 34.08 100.66 47 101 C47.33 101.66 47.66 102.32 48 103 C42.84055127 103.09920549 37.68166311 103.17162646 32.52148438 103.21972656 C30.76780521 103.2397871 29.01419247 103.26704251 27.26074219 103.30175781 C24.73355682 103.35052302 22.20725909 103.37302392 19.6796875 103.390625 C18.90132538 103.41127014 18.12296326 103.43191528 17.3210144 103.45318604 C12.07426119 103.45532725 9.18034667 102.43747028 5 99 C0.26771162 93.62821319 -0.14304556 90.33210347 -0.11352539 83.32763672 C-0.11374443 81.9812059 -0.11374443 81.9812059 -0.1139679 80.60757446 C-0.11326953 77.63158782 -0.10548067 74.65566325 -0.09765625 71.6796875 C-0.0957918 69.61988357 -0.09436802 67.56007919 -0.09336853 65.50027466 C-0.08954548 60.07182598 -0.07971699 54.64340395 -0.06866455 49.21496582 C-0.05844588 43.67847046 -0.05386993 38.14197081 -0.04882812 32.60546875 C-0.03809455 21.73696744 -0.02102065 10.86848594 0 0 Z " fill="#0755E3" transform="translate(244,506)"/>
<path d="M0 0 C-0.928125 0.53625 -1.85625 1.0725 -2.8125 1.625 C-6.52429588 4.39065183 -7.41466334 5.66772903 -9 10 C-9.44847045 14.14321851 -9.4374578 18.26679604 -9.43237305 22.43115234 C-9.4425647 23.68048553 -9.45275635 24.92981873 -9.46325684 26.2170105 C-9.48821914 29.62989482 -9.5001026 33.04234919 -9.50611091 36.45528746 C-9.51551105 40.02678714 -9.54171571 43.59816316 -9.56611633 47.16958618 C-9.60974006 53.92672833 -9.63831229 60.68384642 -9.66143972 67.44108641 C-9.68851359 75.1364346 -9.7324237 82.83165813 -9.77772844 90.52691722 C-9.87051555 106.35121402 -9.94222336 122.1755343 -10 138 C-9.34 138.33 -8.68 138.66 -8 139 C-8 140.32 -8 141.64 -8 143 C-8.66 143 -9.32 143 -10 143 C-11.28491267 140.43017465 -11.13459968 138.59124542 -11.14717102 135.71270752 C-11.15432632 134.59113251 -11.16148163 133.4695575 -11.16885376 132.31399536 C-11.17154266 131.07761322 -11.17423157 129.84123108 -11.17700195 128.56738281 C-11.18357315 127.26975006 -11.19014435 125.97211731 -11.19691467 124.63516235 C-11.21433026 121.06888214 -11.22487826 117.50261534 -11.2331202 113.93630314 C-11.23826992 111.70802897 -11.24434571 109.47975896 -11.25063133 107.25148773 C-11.26968626 100.27934971 -11.28391591 93.30722228 -11.2922433 86.33506322 C-11.30201337 78.287827 -11.32832534 70.24086602 -11.36874419 62.19372678 C-11.39891323 55.97368425 -11.41371297 49.75372056 -11.41702431 43.53360629 C-11.41937421 39.8187812 -11.42832599 36.10425005 -11.45348549 32.38950348 C-11.48111554 28.24289154 -11.47693271 24.09689347 -11.4699707 19.95019531 C-11.48278076 18.7219101 -11.49559082 17.49362488 -11.50878906 16.2281189 C-11.46990413 9.88420701 -11.38803959 5.76617096 -7 1 C-4.00659831 -1.08631027 -3.56491056 -1.18830352 0 0 Z " fill="#0040E2" transform="translate(348,458)"/>
<path d="M0 0 C5.94 0 11.88 0 18 0 C18 3.3 18 6.6 18 10 C17.67 10 17.34 10 17 10 C17 7.36 17 4.72 17 2 C12.05 2 7.1 2 2 2 C2.01160156 4.10890625 2.02320313 6.2178125 2.03515625 8.390625 C2.12500048 29.9454079 1.71929001 51.45764691 1 73 C0.67 73 0.34 73 0 73 C0 48.91 0 24.82 0 0 Z " fill="#030A14" transform="translate(358,667)"/>
<path d="M0 0 C0.66 0 1.32 0 2 0 C1.67 21.12 1.34 42.24 1 64 C0.34 64 -0.32 64 -1 64 C-1.0231271 55.80309439 -1.04091696 47.60620232 -1.05181217 39.40927219 C-1.0570402 35.60348423 -1.06413638 31.79771852 -1.07543945 27.99194336 C-1.0862712 24.32207456 -1.09227744 20.65222722 -1.09487724 16.98234367 C-1.09673097 15.57925008 -1.1003506 14.17615771 -1.10573006 12.7730732 C-1.11294419 10.8143032 -1.11340809 8.8555118 -1.11352539 6.89672852 C-1.115746 5.77976089 -1.11796661 4.66279327 -1.12025452 3.51197815 C-1 1 -1 1 0 0 Z " fill="#1360E6" transform="translate(161,536)"/>
<path d="M0 0 C0.87454834 0.00523682 1.74909668 0.01047363 2.65014648 0.01586914 C3.59438477 0.0190918 4.53862305 0.02231445 5.51147461 0.02563477 C6.50469727 0.03401367 7.49791992 0.04239258 8.52124023 0.05102539 C9.51833008 0.05553711 10.51541992 0.06004883 11.54272461 0.06469727 C14.01478872 0.07652532 16.48673541 0.0930069 18.95874023 0.11352539 C18.95874023 0.44352539 18.95874023 0.77352539 18.95874023 1.11352539 C12.35874023 1.11352539 5.75874023 1.11352539 -1.04125977 1.11352539 C-1.04125977 10.35352539 -1.04125977 19.59352539 -1.04125977 29.11352539 C6.21874023 29.11352539 13.47874023 29.11352539 20.95874023 29.11352539 C18.95874023 31.11352539 18.95874023 31.11352539 16.81982422 31.35644531 C15.52540405 31.35028198 15.52540405 31.35028198 14.20483398 31.34399414 C12.80007812 31.34109375 12.80007812 31.34109375 11.36694336 31.33813477 C9.89644531 31.31976562 9.89644531 31.31976562 8.39624023 31.30102539 C7.41204102 31.30038086 6.4278418 31.29973633 5.41381836 31.29907227 C-1.90108444 31.25370071 -1.90108444 31.25370071 -3.04125977 30.11352539 C-3.14129266 27.97999365 -3.17207024 25.84314997 -3.17407227 23.70727539 C-3.17536133 22.40661133 -3.17665039 21.10594727 -3.17797852 19.76586914 C-3.17588379 19.08508301 -3.17378906 18.40429688 -3.17163086 17.70288086 C-3.16628217 15.62224024 -3.17157657 13.5418155 -3.17797852 11.46118164 C-3.17668945 10.16051758 -3.17540039 8.85985352 -3.17407227 7.51977539 C-3.17294434 6.31643555 -3.17181641 5.1130957 -3.1706543 3.87329102 C-2.99686553 0.16667175 -2.99686553 0.16667175 0 0 Z " fill="#02080E" transform="translate(112.041259765625,694.886474609375)"/>
<path d="M0 0 C0.8850119 0.00141495 1.7700238 0.0028299 2.68185425 0.00428772 C5.51449941 0.00989485 8.34706614 0.02244854 11.1796875 0.03515625 C13.09765511 0.04017033 15.01562396 0.0447334 16.93359375 0.04882812 C21.64065532 0.05986659 26.3476581 0.077136 31.0546875 0.09765625 C31.0546875 0.75765625 31.0546875 1.41765625 31.0546875 2.09765625 C29.87438965 2.0912915 28.6940918 2.08492676 27.47802734 2.07836914 C23.08298209 2.06389778 18.68923863 2.09533505 14.29443359 2.14038086 C12.39539019 2.15348999 10.49621903 2.15428285 8.59716797 2.14233398 C5.86038349 2.12728095 3.12712129 2.15706229 0.390625 2.1953125 C-0.45335846 2.18105728 -1.29734192 2.16680206 -2.16690063 2.15211487 C-5.74005852 2.23913402 -8.03537572 2.29839071 -10.78778076 4.71603394 C-12.41586189 6.6134382 -12.41586189 6.6134382 -13.76571655 8.59812927 C-14.15498322 9.09297318 -14.54424988 9.58781708 -14.9453125 10.09765625 C-15.6053125 10.09765625 -16.2653125 10.09765625 -16.9453125 10.09765625 C-17.2753125 10.75765625 -17.6053125 11.41765625 -17.9453125 12.09765625 C-17.80741358 9.13282951 -17.65586914 6.88531141 -15.61328125 4.62109375 C-10.2559496 0.16316814 -6.75739121 -0.04033735 0 0 Z " fill="#0C5FE3" transform="translate(262.9453125,492.90234375)"/>
<path d="M0 0 C0.2475 0.639375 0.495 1.27875 0.75 1.9375 C1.80148727 4.19060573 1.80148727 4.19060573 4.0625 4.625 C4.701875 4.74875 5.34125 4.8725 6 5 C6.33 5.66 6.66 6.32 7 7 C10.79876271 8.26625424 14.42421926 8.23298547 18.38671875 8.31640625 C19.20372757 8.33718735 20.02073639 8.35796844 20.86250305 8.37937927 C23.47075034 8.44473079 26.07909775 8.50369273 28.6875 8.5625 C30.45639054 8.60569892 32.22527097 8.64931365 33.99414062 8.69335938 C38.32932463 8.80039743 42.66460929 8.90170544 47 9 C46.67 9.66 46.34 10.32 46 11 C40.98294279 11.07442006 35.96621028 11.12872908 30.94873047 11.16479492 C29.24359537 11.17983738 27.53849868 11.20027653 25.83349609 11.22631836 C23.37587988 11.26290284 20.91877731 11.27977173 18.4609375 11.29296875 C17.70444916 11.30845261 16.94796082 11.32393646 16.16854858 11.33988953 C10.25060882 11.34175122 6.2849685 9.86405325 1.625 6.0625 C0 4 0 4 0 0 Z " fill="#317DE6" transform="translate(426,598)"/>
<path d="M0 0 C0.33 0 0.66 0 1 0 C1.33 11.88 1.66 23.76 2 36 C7.28 36.33 12.56 36.66 18 37 C18 37.33 18 37.66 18 38 C11.73 38 5.46 38 -1 38 C-0.67 25.46 -0.34 12.92 0 0 Z " fill="#0E1A24" transform="translate(359,704)"/>
<path d="M0 0 C2 1.375 2 1.375 4 3 C4 3.66 4 4.32 4 5 C-3.92 5 -11.84 5 -20 5 C-20 4.34 -20 3.68 -20 3 C-10.1 2.505 -10.1 2.505 0 2 C0 1.34 0 0.68 0 0 Z " fill="#14212B" transform="translate(929,737)"/>
<path d="M0 0 C1.65 0 3.3 0 5 0 C5 6.27 5 12.54 5 19 C3.02 18.67 1.04 18.34 -1 18 C0.32 17.67 1.64 17.34 3 17 C3 12.05 3 7.1 3 2 C2.01 1.67 1.02 1.34 0 1 C0 0.67 0 0.34 0 0 Z " fill="#272F34" transform="translate(697,666)"/>
<path d="M0 0 C3.52954433 4.45029503 4.12313116 7.54880215 4.0625 13.1875 C4.05347656 14.27417969 4.04445312 15.36085938 4.03515625 16.48046875 C4.02355469 17.31191406 4.01195312 18.14335938 4 19 C3.34 19.33 2.68 19.66 2 20 C1.93941406 19.2265625 1.87882813 18.453125 1.81640625 17.65625 C1.34107401 11.74750457 0.79085443 5.87491859 0 0 Z " fill="#151D26" transform="translate(160,650)"/>
<path d="M0 0 C5.94 0 11.88 0 18 0 C17.67 0.99 17.34 1.98 17 3 C11.06 2.67 5.12 2.34 -1 2 C-0.67 1.34 -0.34 0.68 0 0 Z " fill="#01050A" transform="translate(564,720)"/>
<path d="M0 0 C0.33 0.66 0.66 1.32 1 2 C6.28 2 11.56 2 17 2 C17 2.66 17 3.32 17 4 C11.06 4 5.12 4 -1 4 C-0.67 2.68 -0.34 1.36 0 0 Z " fill="#010509" transform="translate(178,685)"/>
<path d="M0 0 C0.66 0 1.32 0 2 0 C2.3690205 11.52164009 2.3690205 11.52164009 0 17 C-0.66 17 -1.32 17 -2 17 C-1.34 11.39 -0.68 5.78 0 0 Z " fill="#222B33" transform="translate(164,706)"/>
<path d="M0 0 C0.66 0 1.32 0 2 0 C2.7775378 8.89848812 2.7775378 8.89848812 -0.25 13.1875 C-3 15 -3 15 -5.3125 14.8125 C-5.869375 14.544375 -6.42625 14.27625 -7 14 C-5.7934375 13.319375 -5.7934375 13.319375 -4.5625 12.625 C-1.91143428 11.25274335 -1.91143428 11.25274335 -1 9 C-0.77532169 7.46331135 -0.59203195 5.92031946 -0.4375 4.375 C-0.35371094 3.55773437 -0.26992187 2.74046875 -0.18359375 1.8984375 C-0.12300781 1.27195312 -0.06242188 0.64546875 0 0 Z " fill="#1A232C" transform="translate(220,711)"/>
<path d="M0 0 C7.92 0 15.84 0 24 0 C22.68 1.32 21.36 2.64 20 4 C20 3.01 20 2.02 20 1 C13.4 1 6.8 1 0 1 C0 0.67 0 0.34 0 0 Z " fill="#0B192A" transform="translate(906,667)"/>
<path d="M0 0 C0.66 0 1.32 0 2 0 C0.59155282 3.21524305 -1.10344786 5.32183868 -3.625 7.75 C-4.57246094 8.67039062 -4.57246094 8.67039062 -5.5390625 9.609375 C-6.02117188 10.06828125 -6.50328125 10.5271875 -7 11 C-7.33 10.01 -7.66 9.02 -8 8 C-7.38125 7.7525 -6.7625 7.505 -6.125 7.25 C-3.61104784 5.77120461 -3.1465949 4.62078835 -2 2 C-1.34 1.34 -0.68 0.68 0 0 Z " fill="#1C262F" transform="translate(917,677)"/>
<path d="M0 0 C0.2475 0.639375 0.495 1.27875 0.75 1.9375 C1.80148727 4.19060573 1.80148727 4.19060573 4.0625 4.625 C4.701875 4.74875 5.34125 4.8725 6 5 C6.33 5.66 6.66 6.32 7 7 C7.99 7.33 8.98 7.66 10 8 C10 8.66 10 9.32 10 10 C5.62683198 8.80731781 2.79306775 7.65247321 0 4 C0 2.68 0 1.36 0 0 Z " fill="#0D5BE4" transform="translate(426,598)"/>
<path d="M0 0 C0.53625 0.268125 1.0725 0.53625 1.625 0.8125 C0.635 1.1425 -0.355 1.4725 -1.375 1.8125 C-1.375 2.4725 -1.375 3.1325 -1.375 3.8125 C-4.375 5.8125 -4.375 5.8125 -6.5625 5.4375 C-7.160625 5.23125 -7.75875 5.025 -8.375 4.8125 C-2.95961538 -0.23365385 -2.95961538 -0.23365385 0 0 Z " fill="#1560E6" transform="translate(169.375,530.1875)"/>
<path d="M0 0 C0.99 0.33 1.98 0.66 3 1 C2.071875 1.53625 1.14375 2.0725 0.1875 2.625 C-3.24016479 5.17894631 -4.4037685 7.09810078 -6 11 C-6.66 10.67 -7.32 10.34 -8 10 C-6.68745073 6.0623522 -5.1247232 3.7341328 -2 1 C-1.34 0.67 -0.68 0.34 0 0 Z " fill="#0C55E5" transform="translate(345,457)"/>
<path d="M0 0 C0.99 0.33 1.98 0.66 3 1 C2.54625 1.5775 2.0925 2.155 1.625 2.75 C0.15886484 4.7800333 -0.94857784 6.73539843 -2 9 C-2.66 7.68 -3.32 6.36 -4 5 C-2.68 3.35 -1.36 1.7 0 0 Z " fill="#115FE6" transform="translate(428,374)"/>
<path d="M0 0 C3.36591866 1.44253657 5.51047079 3.33264727 8 6 C7.67 6.99 7.34 7.98 7 9 C5.82737096 7.88121617 4.66204862 6.75476949 3.5 5.625 C2.8503125 4.99851562 2.200625 4.37203125 1.53125 3.7265625 C0 2 0 2 0 0 Z " fill="#FBC02C" transform="translate(456,316)"/>
<path d="M0 0 C0.66 0.33 1.32 0.66 2 1 C0.19587357 4.26460973 -0.83394693 5.88929795 -4 8 C-4.33 7.34 -4.66 6.68 -5 6 C-3.35 4.02 -1.7 2.04 0 0 Z " fill="#141E27" transform="translate(715,701)"/>
<path d="M0 0 C3.24271506 0.5590888 4.93057424 1.4132178 7 4 C7 4.66 7 5.32 7 6 C4.12549673 4.71142957 2.07476576 3.38598062 0 1 C0 0.67 0 0.34 0 0 Z " fill="#131B23" transform="translate(840,673)"/>
<path d="M0 0 C0.33 0.99 0.66 1.98 1 3 C-3.75 7 -3.75 7 -6 7 C-6 6.34 -6 5.68 -6 5 C-4.04072937 3.2856382 -2.04119788 1.61594832 0 0 Z " fill="#040A10" transform="translate(753,720)"/>
<path d="M0 0 C-1.39332574 3.36720387 -2.9789286 4.9859524 -6 7 C-5.37162381 3.35541809 -4.14650034 0 0 0 Z " fill="#222B34" transform="translate(908,688)"/>
<path d="M0 0 C3.67420866 0.30618405 4.78135513 0.75771784 7.3125 3.5625 C8.1478125 4.7690625 8.1478125 4.7690625 9 6 C8.01 6.495 8.01 6.495 7 7 C4.66666667 4.66666667 2.33333333 2.33333333 0 0 Z " fill="#040B12" transform="translate(412,669)"/>
</svg>
